<?xml version="1.0" encoding="UTF-8"?>
<!DOCTYPE svg PUBLIC "-//W3C//DTD SVG 1.1//EN" "http://www.w3.org/Graphics/SVG/1.1/DTD/svg11.dtd">
<!-- Creator: CorelDRAW 2018 (64-Bit) -->
<svg xmlns="http://www.w3.org/2000/svg" xml:space="preserve" width="62.4539mm" height="96.1154mm" version="1.1" style="shape-rendering:geometricPrecision; text-rendering:geometricPrecision; image-rendering:optimizeQuality; fill-rule:evenodd; clip-rule:evenodd"
viewBox="0 0 1283.49 1975.27"
 xmlns:xlink="http://www.w3.org/1999/xlink">
 <defs>
  <style type="text/css">
   <![CDATA[
    .str0 {stroke:#2B2A29;stroke-width:2.06;stroke-miterlimit:22.9256}
    .fil1 {fill:none}
    .fil0 {fill:white}
   ]]>
  </style>
 </defs>
 <g id="Слой_x0020_1">
  <metadata id="CorelCorpID_0Corel-Layer"/>
  <g id="_2863215535024">
   <g>
    <polygon class="fil0 str0" points="1068.89,1.19 1175.68,62.84 1282.47,124.49 1282.47,247.8 1282.47,371.1 1175.68,432.76 1068.89,494.41 962.11,432.76 855.32,371.1 855.32,247.8 855.32,124.49 962.11,62.84 "/>
    <line class="fil1 str0" x1="1282.47" y1="124.49" x2="1068.89" y2= "247.8" />
    <line class="fil1 str0" x1="855.32" y1="124.49" x2="1068.89" y2= "247.8" />
    <line class="fil1 str0" x1="1068.89" y1="494.41" x2="1068.89" y2= "247.8" />
   </g>
   <g>
    <polygon class="fil0 str0" points="1068.89,494.41 1175.68,556.06 1282.47,617.72 1282.47,741.02 1282.47,864.33 1175.68,925.98 1068.89,987.64 962.11,925.98 855.32,864.33 855.32,741.02 855.32,617.72 962.11,556.06 "/>
    <line class="fil1 str0" x1="1282.47" y1="617.72" x2="1068.89" y2= "741.02" />
    <line class="fil1 str0" x1="855.32" y1="617.72" x2="1068.89" y2= "741.02" />
    <line class="fil1 str0" x1="1068.89" y1="987.64" x2="1068.89" y2= "741.02" />
   </g>
   <g>
    <polygon class="fil0 str0" points="1068.89,987.64 1175.68,1049.29 1282.47,1110.94 1282.47,1234.25 1282.47,1357.56 1175.68,1419.21 1068.89,1480.86 962.11,1419.21 855.32,1357.56 855.32,1234.25 855.32,1110.94 962.11,1049.29 "/>
    <line class="fil1 str0" x1="1282.47" y1="1110.94" x2="1068.89" y2= "1234.25" />
    <line class="fil1 str0" x1="855.32" y1="1110.94" x2="1068.89" y2= "1234.25" />
    <line class="fil1 str0" x1="1068.89" y1="1480.86" x2="1068.89" y2= "1234.25" />
   </g>
   <g>
    <polygon class="fil0 str0" points="641.75,247.8 748.53,309.45 855.32,371.1 855.32,494.41 855.32,617.72 748.53,679.37 641.75,741.02 534.96,679.37 428.17,617.72 428.17,494.41 428.17,371.1 534.96,309.45 "/>
    <line class="fil1 str0" x1="855.32" y1="371.1" x2="641.75" y2= "494.41" />
    <line class="fil1 str0" x1="428.17" y1="371.1" x2="641.75" y2= "494.41" />
    <line class="fil1 str0" x1="641.75" y1="741.02" x2="641.75" y2= "494.41" />
   </g>
   <g>
    <polygon class="fil0 str0" points="641.75,741.02 748.53,802.68 855.32,864.33 855.32,987.64 855.32,1110.94 748.53,1172.6 641.75,1234.25 534.96,1172.6 428.17,1110.94 428.17,987.64 428.17,864.33 534.96,802.68 "/>
    <line class="fil1 str0" x1="855.32" y1="864.33" x2="641.75" y2= "987.64" />
    <line class="fil1 str0" x1="428.17" y1="864.33" x2="641.75" y2= "987.64" />
    <line class="fil1 str0" x1="641.75" y1="1234.25" x2="641.75" y2= "987.64" />
   </g>
   <g>
    <polygon class="fil0 str0" points="641.75,1234.25 748.53,1295.9 855.32,1357.56 855.32,1480.86 855.32,1604.17 748.53,1665.82 641.75,1727.47 534.96,1665.82 428.17,1604.17 428.17,1480.86 428.17,1357.56 534.96,1295.9 "/>
    <line class="fil1 str0" x1="855.32" y1="1357.56" x2="641.75" y2= "1480.86" />
    <line class="fil1 str0" x1="428.17" y1="1357.56" x2="641.75" y2= "1480.86" />
    <line class="fil1 str0" x1="641.75" y1="1727.47" x2="641.75" y2= "1480.86" />
   </g>
   <g>
    <polygon class="fil0 str0" points="214.6,494.41 321.39,556.06 428.17,617.72 428.17,741.02 428.17,864.33 321.39,925.98 214.6,987.63 107.81,925.98 1.03,864.33 1.03,741.02 1.03,617.72 107.81,556.06 "/>
    <line class="fil1 str0" x1="428.17" y1="617.72" x2="214.6" y2= "741.02" />
    <line class="fil1 str0" x1="1.03" y1="617.72" x2="214.6" y2= "741.02" />
    <line class="fil1 str0" x1="214.6" y1="987.63" x2="214.6" y2= "741.02" />
   </g>
   <g>
    <polygon class="fil0 str0" points="214.6,987.63 321.39,1049.29 428.17,1110.94 428.17,1234.25 428.17,1357.55 321.39,1419.21 214.6,1480.86 107.81,1419.21 1.03,1357.55 1.03,1234.25 1.03,1110.94 107.81,1049.29 "/>
    <line class="fil1 str0" x1="428.17" y1="1110.94" x2="214.6" y2= "1234.25" />
    <line class="fil1 str0" x1="1.03" y1="1110.94" x2="214.6" y2= "1234.25" />
    <line class="fil1 str0" x1="214.6" y1="1480.86" x2="214.6" y2= "1234.25" />
   </g>
   <g>
    <polygon class="fil0 str0" points="214.6,1480.86 321.39,1542.51 428.17,1604.17 428.17,1727.47 428.17,1850.78 321.39,1912.43 214.6,1974.09 107.81,1912.43 1.03,1850.78 1.03,1727.47 1.03,1604.17 107.81,1542.51 "/>
    <line class="fil1 str0" x1="428.17" y1="1604.17" x2="214.6" y2= "1727.47" />
    <line class="fil1 str0" x1="1.03" y1="1604.17" x2="214.6" y2= "1727.47" />
    <line class="fil1 str0" x1="214.6" y1="1974.09" x2="214.6" y2= "1727.47" />
   </g>
  </g>
 </g>
</svg>
